<svg width="459" height="459" xmlns="http://www.w3.org/2000/svg" xmlns:xlink="http://www.w3.org/1999/xlink" overflow="hidden"><g transform="translate(-687 -109)"><rect x="690" y="111" width="453" height="454" fill="#F5F2E9"/><rect x="690" y="111" width="453" height="454" stroke="#000000" stroke-width="4" stroke-miterlimit="8" fill="none"/><path d="M866 187 866 564.759" stroke="#000000" stroke-width="4" stroke-miterlimit="8" fill="none" fill-rule="evenodd"/><path d="M708 471 884.27 471" stroke="#000000" stroke-width="4" stroke-miterlimit="8" fill="none" fill-rule="evenodd"/><path d="M733 152 1117.47 152" stroke="#000000" stroke-width="4" stroke-miterlimit="8" fill="none" fill-rule="evenodd"/><path d="M982 276 982 542.327" stroke="#000000" stroke-width="4" stroke-miterlimit="8" fill="none" fill-rule="evenodd"/><path d="M690 231 1004.94 231" stroke="#000000" stroke-width="4" stroke-miterlimit="8" fill="none" fill-rule="evenodd"/><rect x="982" y="346" width="121" height="125"/><rect x="768" y="231" width="98" height="62"/><rect x="831" y="471" width="53" height="94"/><path d="M733 262 733 564.86" stroke="#000000" stroke-width="4" stroke-miterlimit="8" fill="none" fill-rule="evenodd"/><path d="M0 0 0.000104987 238.955" stroke="#000000" stroke-width="4" stroke-miterlimit="8" fill="none" fill-rule="evenodd" transform="matrix(1 0 0 -1 1041 349.955)"/><path d="M919 508 1108.68 508" stroke="#000000" stroke-width="4" stroke-miterlimit="8" fill="none" fill-rule="evenodd"/><rect x="941" y="137" width="128" height="29"/><path d="M1076 311 1143.21 311" stroke="#000000" stroke-width="4" stroke-miterlimit="8" fill="none" fill-rule="evenodd"/></g></svg>